<svg width="452" height="82" viewBox="0 0 452 82" fill="none" xmlns="http://www.w3.org/2000/svg">
<path d="M0 51.7637C0 33.861 12.3012 22.2188 29.3253 22.2188C46.4591 22.2188 58.6505 33.9708 58.6505 51.7637C58.6505 69.9958 46.3493 81.4184 29.3253 81.4184C12.3012 81.4184 0 68.8975 0 51.7637ZM42.1757 51.9833C42.1757 40.4509 36.9037 34.6298 29.3253 34.6298C21.7468 34.6298 16.4749 40.4509 16.4749 51.9833C16.4749 63.5157 21.7468 68.8975 29.3253 68.8975C36.9037 68.8975 42.1757 63.4059 42.1757 51.9833Z" fill="#00297A"/>
<path d="M89.8428 56.4855L81.7152 64.2836V79.5503H65.8993V1.45947H81.7152V26.3914V46.3809L104.121 23.8653H123.561L100.826 45.9416L127.296 79.6602H107.306L89.8428 56.4855Z" fill="#00297A"/>
<path d="M136.96 65.0533V35.8379H125.208V23.7563H136.96V6.18311H152.776V23.7563H167.274V35.8379H152.776V62.0878C152.776 65.3828 154.204 67.0303 157.719 67.0303H169.8V79.661H151.129C142.123 79.661 136.96 73.73 136.96 65.0533Z" fill="#00297A"/>
<path d="M174.524 65.3829C174.524 49.7867 190.998 45.1737 209.56 43.4164V41.3296C209.56 36.497 206.814 33.6413 200.444 33.6413C193.195 33.6413 189.461 37.2658 188.143 42.4279L173.865 39.3526C174.743 30.6758 184.079 22.2188 200.334 22.2188C215.93 22.2188 225.266 29.1382 225.266 43.8557V64.2846C225.266 67.0304 225.596 67.5795 228.671 67.5795H233.613V79.6611H221.422C215.162 79.6611 211.976 76.5858 211.427 71.5335C208.462 76.2563 202.201 81.4184 192.316 81.4184C182.102 81.4184 174.524 75.158 174.524 65.3829ZM209.56 56.7061V53.0817C199.236 54.2898 190.559 56.2668 190.559 63.7354C190.559 67.4697 192.975 69.7762 197.808 69.7762C203.959 69.7762 209.56 65.8222 209.56 56.7061Z" fill="#00297A"/>
<path d="M239.655 23.8655H255.031V32.4324C257.338 28.5883 262.719 22.1082 273.044 22.1082C286.004 22.1082 291.495 30.0161 291.495 42.2075V79.6604H275.68V45.7221C275.68 38.3634 272.165 35.1782 266.783 35.1782C255.69 35.1782 255.58 47.2598 255.58 53.1907V79.6604H239.764V23.8655H239.655Z" fill="#00297A"/>
<path d="M300.391 51.6538C300.391 34.0807 312.472 22.2188 328.618 22.2188C347.399 22.2188 357.174 36.9363 355.637 55.6078H316.207C316.646 65.3829 321.918 69.4467 328.728 69.4467C335.867 69.4467 339.381 64.9436 341.688 59.7814L355.856 65.2731C352.781 72.4122 345.642 81.5283 328.728 81.5283C311.594 81.4184 300.391 69.886 300.391 51.6538ZM340.04 44.4049C339.381 37.4855 335.318 33.5315 328.618 33.5315C322.248 33.5315 317.854 37.3756 316.756 44.4049H340.04Z" fill="#00297A"/>
<path d="M364.864 70.984C384.194 58.3533 405.282 42.8669 405.282 24.8544C405.282 12.9925 397.813 7.17134 389.027 7.17134C380.789 7.17134 372.222 12.7728 372.442 26.0625L364.534 25.074C364.534 9.47782 374.858 0.0322266 389.136 0.0322266C404.403 0.0322266 413.849 10.1368 413.849 23.9757C413.849 32.1033 410.993 39.2424 406.051 45.5029C398.912 54.9484 387.818 63.6252 374.199 72.302H391.443H415.167V79.6607H365.193V70.984H364.864Z" fill="#00297A"/>
<path d="M443.833 24.5243V13.2115C439.44 20.5703 431.092 26.5013 422.525 28.4783V20.131C431.422 17.495 440.318 11.4542 445.81 1.45947H451.631V79.6602H443.833V24.5243Z" fill="#00297A"/>
</svg>
